<?xml version="1.0" encoding="utf-8"?>
<!-- Generator: Adobe Illustrator 24.1.2, SVG Export Plug-In . SVG Version: 6.00 Build 0)  -->
<svg version="1.1" id="Calque_1" xmlns="http://www.w3.org/2000/svg" xmlns:xlink="http://www.w3.org/1999/xlink" x="0px" y="0px"
	 viewBox="0 0 125 36" style="enable-background:new 0 0 125 36;" xml:space="preserve">
<style type="text/css">
	.st0{fill:#FFFFFF;}
	.st1{fill:#ee82ee;}
	.st2{fill:#ee82ee;}
</style>
<path class="st0" d="M22.02,26.95c-1.03,0.36-2.13,0.57-3.28,0.57c-5.45,0-9.87-4.42-9.87-9.87s4.42-9.87,9.87-9.87
	s9.87,4.42,9.87,9.87c0,2.94-1.3,5.58-3.34,7.39l2.23,1.96c2.5-2.34,4.07-5.66,4.07-9.35c0-7.08-5.74-12.83-12.83-12.83
	S5.92,10.56,5.92,17.64s5.74,12.83,12.83,12.83c1.39,0,2.73-0.23,3.99-0.64L22.02,26.95z"/>

<polygon class="st1" points="17.01,20.97 22.02,17.86 17.01,14.75 "/>

<path class="st2" d="M21.21,23.65c-0.76,0.31-1.59,0.49-2.47,0.49c-3.59,0-6.5-2.91-6.5-6.5c0-3.59,2.91-6.5,6.5-6.5
	c3.59,0,6.5,2.91,6.5,6.5c0,2.09-0.99,3.95-2.53,5.13l1.1,0.97c1.75-1.46,2.87-3.65,2.87-6.11c0-4.39-3.56-7.94-7.94-7.94
	s-7.94,3.56-7.94,7.94c0,4.39,3.56,7.94,7.94,7.94c0.99,0,1.94-0.19,2.81-0.52L21.21,23.65z"/>
<path class="st0" d="M23.01,24.83l1.85,7.38c0.05,0.13,0.11,0.26,0.18,0.38c0.65,1.08,2.06,1.42,3.13,0.77
	c1.08-0.65,1.42-2.06,0.77-3.13c-0.07-0.12-0.16-0.23-0.25-0.34L23.01,24.83z"/>
<g>
	<path class="st0" d="M34.97,13.18v6.58c0,0.83,0.19,1.44,0.56,1.85c0.38,0.41,0.97,0.61,1.77,0.61c1.06,0,1.84-0.29,2.33-0.87
		c0.49-0.58,0.74-1.53,0.74-2.84v-5.33h1.54v10.15h-1.27l-0.22-1.36h-0.08c-0.31,0.5-0.75,0.88-1.31,1.15
		c-0.56,0.27-1.2,0.4-1.91,0.4c-1.23,0-2.16-0.29-2.77-0.88c-0.61-0.59-0.92-1.52-0.92-2.81v-6.64H34.97z"/>
	<path class="st0" d="M45.03,10.43c0-0.35,0.09-0.61,0.26-0.77c0.17-0.16,0.39-0.25,0.65-0.25c0.25,0,0.46,0.08,0.64,0.25
		c0.18,0.17,0.27,0.42,0.27,0.77c0,0.35-0.09,0.6-0.27,0.77c-0.18,0.17-0.39,0.25-0.64,0.25c-0.26,0-0.48-0.08-0.65-0.25
		C45.12,11.04,45.03,10.78,45.03,10.43z M46.7,23.33h-1.54V13.18h1.54V23.33z"/>
	<path class="st0" d="M54.01,23.51c-1.47,0-2.61-0.45-3.41-1.36c-0.81-0.9-1.21-2.18-1.21-3.84c0-1.7,0.41-3.01,1.23-3.93
		C51.43,13.46,52.6,13,54.11,13c0.49,0,0.97,0.05,1.46,0.16c0.49,0.1,0.87,0.23,1.15,0.37l-0.47,1.31
		c-0.34-0.14-0.71-0.25-1.11-0.34c-0.4-0.09-0.76-0.13-1.06-0.13c-2.06,0-3.09,1.31-3.09,3.94c0,1.25,0.25,2.2,0.75,2.87
		c0.5,0.67,1.25,1,2.24,1c0.85,0,1.71-0.18,2.6-0.55v1.36C55.89,23.34,55.04,23.51,54.01,23.51z"/>
	<path class="st0" d="M60.5,18.13c0.27-0.38,0.67-0.87,1.21-1.48l3.28-3.47h1.82L62.7,17.5l4.4,5.82h-1.86l-3.58-4.79l-1.16,1v3.8
		h-1.52V8.92h1.52v7.64c0,0.34-0.02,0.86-0.07,1.57H60.5z"/>
	<path class="st0" d="M75.15,23.33l-4.59-12h-0.07c0.09,0.95,0.13,2.08,0.13,3.39v8.61h-1.45V9.79h2.37l4.29,11.16h0.07l4.32-11.16
		h2.35v13.53h-1.57v-8.72c0-1,0.04-2.09,0.13-3.26h-0.07l-4.63,11.98H75.15z"/>
	<path class="st0" d="M94.8,18.24c0,1.65-0.42,2.95-1.25,3.87c-0.83,0.93-1.98,1.39-3.45,1.39c-0.91,0-1.71-0.21-2.42-0.64
		c-0.7-0.43-1.25-1.04-1.63-1.83s-0.57-1.73-0.57-2.8c0-1.65,0.41-2.94,1.24-3.86C87.55,13.46,88.7,13,90.16,13
		c1.42,0,2.55,0.47,3.38,1.42C94.38,15.36,94.8,16.63,94.8,18.24z M87.07,18.24c0,1.3,0.26,2.28,0.78,2.96
		c0.52,0.68,1.28,1.02,2.29,1.02c1.01,0,1.77-0.34,2.29-1.01c0.52-0.68,0.78-1.66,0.78-2.97c0-1.29-0.26-2.27-0.78-2.94
		c-0.52-0.67-1.29-1-2.31-1c-1.01,0-1.76,0.33-2.28,0.99C87.33,15.95,87.07,16.94,87.07,18.24z"/>
	<path class="st0" d="M99.72,23.33l-3.85-10.15h1.65l2.18,6.02c0.49,1.41,0.78,2.32,0.87,2.74h0.07c0.07-0.33,0.28-1,0.64-2.03
		c0.36-1.03,1.17-3.27,2.43-6.72h1.65l-3.85,10.15H99.72z"/>
	<path class="st0" d="M106.86,10.43c0-0.35,0.09-0.61,0.26-0.77c0.17-0.16,0.39-0.25,0.65-0.25c0.25,0,0.46,0.08,0.64,0.25
		c0.18,0.17,0.27,0.42,0.27,0.77c0,0.35-0.09,0.6-0.27,0.77c-0.18,0.17-0.39,0.25-0.64,0.25c-0.26,0-0.48-0.08-0.65-0.25
		C106.95,11.04,106.86,10.78,106.86,10.43z M108.53,23.33h-1.54V13.18h1.54V23.33z"/>
	<path class="st0" d="M116.07,23.51c-1.5,0-2.68-0.46-3.55-1.37c-0.87-0.91-1.3-2.18-1.3-3.8c0-1.64,0.4-2.93,1.21-3.9
		c0.81-0.96,1.89-1.44,3.24-1.44c1.27,0,2.28,0.42,3.02,1.25c0.74,0.84,1.11,1.94,1.11,3.31v0.97h-6.99c0.03,1.19,0.33,2.1,0.9,2.71
		c0.57,0.62,1.37,0.93,2.41,0.93c1.09,0,2.17-0.23,3.24-0.68v1.37c-0.54,0.23-1.06,0.4-1.54,0.5
		C117.34,23.46,116.76,23.51,116.07,23.51z M115.66,14.28c-0.81,0-1.46,0.27-1.95,0.8c-0.48,0.53-0.77,1.26-0.86,2.2h5.3
		c0-0.97-0.22-1.71-0.65-2.23C117.08,14.54,116.46,14.28,115.66,14.28z"/>
</g>
</svg>
